<svg width="15" height="15" viewBox="0 0 15 15" fill="none" xmlns="http://www.w3.org/2000/svg">
  <path d="M13.1111 5.95772H12.6405V5.93348H7.38285V8.27021H10.6844C10.2027 9.63049 8.90845 10.6069 7.38285 10.6069C5.44716 10.6069 3.87775 9.03754 3.87775 7.10185C3.87775 5.16615 5.44716 3.59674 7.38285 3.59674C8.27636 3.59674 9.08925 3.93382 9.7082 4.48441L11.3606 2.83205C10.3172 1.85967 8.92159 1.26001 7.38285 1.26001C4.1567 1.26001 1.54102 3.87569 1.54102 7.10185C1.54102 10.328 4.1567 12.9437 7.38285 12.9437C10.609 12.9437 13.2247 10.328 13.2247 7.10185C13.2247 6.71015 13.1844 6.3278 13.1111 5.95772Z" fill="#FFC107"/>
  <path d="M2.2168 4.38276L4.13613 5.79035C4.65547 4.50457 5.91322 3.59674 7.38507 3.59674C8.27858 3.59674 9.09147 3.93382 9.71041 4.48441L11.3628 2.83205C10.3194 1.85967 8.92381 1.26001 7.38507 1.26001C5.14122 1.26001 3.1953 2.52681 2.2168 4.38276Z" fill="#FF3D00"/>
  <path d="M7.38624 12.9431C8.89519 12.9431 10.2663 12.3656 11.3029 11.4266L9.49485 9.89658C8.90833 10.3409 8.17927 10.6064 7.38624 10.6064C5.86678 10.6064 4.57661 9.63749 4.09057 8.2854L2.18555 9.75316C3.15237 11.645 5.11581 12.9431 7.38624 12.9431Z" fill="#4CAF50"/>
  <path d="M13.113 5.95808H12.6424V5.93384H7.38477V8.27057H10.6863C10.4549 8.92398 10.0346 9.48743 9.4925 9.89782L9.49338 9.89723L11.3014 11.4272C11.1735 11.5435 13.2266 10.0231 13.2266 7.10221C13.2266 6.71051 13.1863 6.32816 13.113 5.95808Z" fill="#1976D2"/>
</svg>