<svg width="24" height="25" viewBox="0 0 24 25" fill="none" xmlns="http://www.w3.org/2000/svg">
  <path d="M15.5799 12.0204C15.5799 14.0004 13.9799 15.6004 11.9999 15.6004C10.0199 15.6004 8.41992 14.0004 8.41992 12.0204C8.41992 10.0404 10.0199 8.44043 11.9999 8.44043C13.9799 8.44043 15.5799 10.0404 15.5799 12.0204Z" stroke="#888889" stroke-width="1.5" stroke-linecap="round" stroke-linejoin="round"/>
  <path d="M11.9998 20.2905C15.5298 20.2905 18.8198 18.2105 21.1098 14.6105C22.0098 13.2005 22.0098 10.8305 21.1098 9.42048C18.8198 5.82048 15.5298 3.74048 11.9998 3.74048C8.46984 3.74048 5.17984 5.82048 2.88984 9.42048C1.98984 10.8305 1.98984 13.2005 2.88984 14.6105C5.17984 18.2105 8.46984 20.2905 11.9998 20.2905Z" stroke="#888889" stroke-width="1.5" stroke-linecap="round" stroke-linejoin="round"/>
</svg>